<svg xmlns="http://www.w3.org/2000/svg" xmlns:xlink="http://www.w3.org/1999/xlink" height="32" width="32">
  <g opacity="1">
    <path fill="rgb(0,0,0)" fill-opacity="1" opacity="1" fill-rule="evenodd" d="M0 16C0 24.83655548095703 7.1634440422058105 32 16 32C24.83655548095703 32 32 24.83655548095703 32 16C32 7.1634440422058105 24.83655548095703 0 16 0C7.1634440422058105 0 0 7.1634440422058105 0 16ZM28 16C28 22.627416610717773 22.627416610717773 28 16 28C9.372583389282227 28 4 22.627416610717773 4 16C4 9.372583389282227 9.372583389282227 4 16 4C22.627416610717773 4 28 9.372583389282227 28 16ZM14 20L14 19C14 16.564743041992188 14.847116470336914 15.364663124084473 16.799999237060547 13.899999618530273C17.847116470336914 13.114663124084473 18 12.898077011108398 18 12C18 10.895430564880371 17.104568481445312 10 16 10C14.895430564880371 10 14 10.895430564880371 14 12L10 12C10 8.686291694641113 12.686291694641113 6 16 6C19.313709259033203 6 22 8.686291694641113 22 12C22 14.435256004333496 21.15288543701172 15.635336875915527 19.200000762939453 17.100000381469727C18.15288543701172 17.885337829589844 18 18.1019229888916 18 19L18 20L14 20ZM18.001312255859375 23.996692657470703C18.001312255859375 22.89286231994629 17.104848861694336 21.996692657470703 16.000656127929688 21.996692657470703C14.896464347839355 21.996692657470703 14 22.89286231994629 14 23.996692657470703C14 25.100522994995117 14.896464347839355 25.996692657470703 16.000656127929688 25.996692657470703C17.104848861694336 25.996692657470703 18.001312255859375 25.100522994995117 18.001312255859375 23.996692657470703Z"/>
  </g>
</svg>