<svg xmlns="http://www.w3.org/2000/svg" xmlns:xlink="http://www.w3.org/1999/xlink" height="64.00000038168895" width="63.999999999999886">
  <g opacity="1">
    <path fill="rgb(0,0,0)" fill-opacity="1" opacity="1" fill-rule="evenodd" d="M16.994048209014956 13.434280483125741L38.32845985194683 3.81688977313388e-7L38.32845985194683 64.00000215225388L16.99405383253307 50.56572028025218L5.896686131068791 50.56572028025218C2.64003649663262 50.56572028025218 5.684341886080802e-14 47.240854286427854 5.684341886080802e-14 43.139432674939876L5.684341886080802e-14 20.86056808843804C5.684341886080802e-14 16.759142935820186 2.64003649663262 13.434280483125741 5.896686131068791 13.434280483125741L16.994048209014956 13.434280483125741ZM20.638401458740628 19.442274749815144L32.4317737208781 12.015987144502846L32.4317737208781 51.984013618875075L20.638401458740628 44.55772601356277L20.638401458740628 19.442274749815144ZM42.14035317099642 23.48615654192011L46.309941606793764 18.23497963495597L53.070175179618666 26.74881904831247L59.83040875244357 18.23497963495597L63.999999999999964 23.48615654192011L57.23976642717506 32.00000126697143L63.999999999999964 40.51384068032793L59.83040875244357 45.76502466955183L53.070175179618666 37.25117817393557L46.309941606793764 45.76502466955183L42.14035317099642 40.51384068032793L48.90058955558038 32.00000126697143L42.14035317099642 23.48615654192011ZM14.741715327671892 20.86056808843804L5.896686131068791 20.86056808843804L5.896686131068791 43.139432674939876L14.741715327671892 43.139432674939876L14.741715327671892 20.86056808843804Z"/>
  </g>
</svg>