<svg xmlns="http://www.w3.org/2000/svg" xmlns:xlink="http://www.w3.org/1999/xlink" height="64.000000381689" width="64.00000000000023">
  <g opacity="1">
    <path fill="rgb(0,0,0)" fill-opacity="1" opacity="1" fill-rule="evenodd" d="M16.767801458185364 13.434280483125804L37.818181818181884 3.8168904126223424e-7L37.818181818181884 64.00000215225393L16.767807006835934 50.56572028025223L5.818181818181779 50.56572028025223C2.604888916015576 50.56572028025223 -5.684341886080802e-14 47.24085428642791 -5.684341886080802e-14 43.13943267493993L-5.684341886080802e-14 20.8605680884381C-5.684341886080802e-14 16.759142935820247 2.604888916015576 13.434280483125804 5.818181818181779 13.434280483125804L16.767801458185364 13.434280483125804ZM54.33919455788364 0.27757627356617326C60.2578346946024 7.79306936691049 64.00000000000014 19.2568753539375 64.00000000000014 32.00000126697149C64.00000000000014 44.74312540944054 60.2578346946024 56.20693139646754 54.33919455788364 63.72242006339951L49.754616477272826 59.04104636505868C54.8327470259234 52.99277528714014 58.1818181818183 43.1846316566991 58.1818181818183 32.00000126697149C58.1818181818183 20.81536910667893 54.8327470259234 11.007221935108014 49.754616477272826 4.958956168884285L54.33919455788364 0.27757627356617326ZM52.36363636363647 32.00000126697149C52.36363636363647 23.048851789931362 49.643343838778506 14.965516388633517 45.30837735262792 9.499079508097827L40.71933260830973 14.185017722851027C44.23908580433247 18.230585092777787 46.54545454545463 24.66902848401274 46.54545454545463 32.00000126697149C46.54545454545463 39.33096873823542 44.23908580433247 45.769415670600246 40.71933260830973 49.81498658165688L45.30837735262792 54.50092125528021C49.643343838778506 49.0344790630497 52.36363636363647 40.951141891186914 52.36363636363647 32.00000126697149ZM20.363636363636367 19.44227474981521L32.00000000000004 12.015987144502908L32.00000000000004 51.984013618875125L20.363636363636367 44.55772601356283L20.363636363636367 19.44227474981521ZM14.545454545454533 20.8605680884381L5.818181818181779 20.8605680884381L5.818181818181779 43.13943267493993L14.545454545454533 43.13943267493993L14.545454545454533 20.8605680884381Z"/>
  </g>
</svg>